<svg width="267" height="147" viewBox="0 0 267 147" fill="none" xmlns="http://www.w3.org/2000/svg">
<rect x="2.5" y="2.5" width="262" height="142" rx="22.5" fill="#EEE0FF" stroke="#EEE0FF" stroke-width="5"/>
<rect x="5" y="63" width="257" height="63" fill="white"/>
<path d="M74.9062 98.9375C74.9062 100.229 74.6823 101.411 74.2344 102.484C73.7865 103.547 73.1615 104.469 72.3594 105.25C71.5677 106.021 70.6302 106.635 69.5469 107.094C68.4635 107.552 67.2865 107.818 66.0156 107.891C64.5469 107.984 63.2552 107.792 62.1406 107.312C61.0365 106.833 60.1042 106.146 59.3438 105.25C58.5938 104.354 58.0208 103.286 57.625 102.047C57.2292 100.807 57.0156 99.4635 56.9844 98.0156L60.2812 97.6562C60.25 98.6042 60.3021 99.4323 60.4375 100.141C60.5833 100.849 60.7812 101.458 61.0312 101.969C61.2917 102.479 61.5938 102.901 61.9375 103.234C62.2812 103.568 62.6354 103.839 63 104.047C63.8542 104.536 64.8333 104.776 65.9375 104.766C66.75 104.703 67.4583 104.552 68.0625 104.312C68.6771 104.062 69.1979 103.75 69.625 103.375C70.0625 103 70.4219 102.573 70.7031 102.094C70.9844 101.604 71.2031 101.089 71.3594 100.547C71.526 99.9948 71.6406 99.4271 71.7031 98.8438C71.7656 98.25 71.7969 97.6615 71.7969 97.0781C71.7969 96.474 71.7812 95.75 71.75 94.9062C71.7292 94.0521 71.6979 93.1615 71.6562 92.2344C71.625 91.3073 71.5833 90.3854 71.5312 89.4688C71.4896 88.5521 71.4427 87.7344 71.3906 87.0156C71.349 86.2865 71.3073 85.7031 71.2656 85.2656C71.224 84.8177 71.1875 84.5938 71.1562 84.5938L74.5469 84.5312C74.5677 84.5417 74.5885 84.7917 74.6094 85.2812C74.6406 85.7708 74.6667 86.4167 74.6875 87.2188C74.7188 88.0208 74.7448 88.9323 74.7656 89.9531C74.7969 90.9635 74.8229 92.0052 74.8438 93.0781C74.8646 94.1406 74.8802 95.1823 74.8906 96.2031C74.901 97.224 74.9062 98.1354 74.9062 98.9375ZM92.7344 98.5781L83.4531 99.0312L83.5156 103.922L97.0156 103.156L97.0781 106.234L80.5781 107.125L80.2188 84.8594L97.1875 84.5938L97.0781 87.5781L83.2969 87.7969L83.3906 95.9531L92.6719 95.5781L92.7344 98.5781ZM117.25 84.4375L117.188 87.4219L109.891 87.7031L110.109 107.422L106.656 107.484V87.8281L99.2656 88.125L99.2031 84.8281L117.25 84.4375ZM137.328 103.312C137.224 104.042 137.016 104.693 136.703 105.266C136.401 105.828 136.021 106.318 135.562 106.734C135.104 107.151 134.589 107.5 134.016 107.781C133.453 108.073 132.859 108.307 132.234 108.484C131.62 108.661 130.995 108.786 130.359 108.859C129.724 108.943 129.115 108.984 128.531 108.984C127.729 108.984 126.938 108.896 126.156 108.719C125.375 108.552 124.604 108.312 123.844 108C123.094 107.698 122.349 107.333 121.609 106.906C120.88 106.479 120.156 106.01 119.438 105.5L121.719 102.812C122.531 103.531 123.333 104.099 124.125 104.516C124.927 104.922 125.646 105.229 126.281 105.438C127.021 105.688 127.729 105.854 128.406 105.938C129.156 105.979 129.854 105.922 130.5 105.766C131.146 105.609 131.708 105.385 132.188 105.094C132.677 104.792 133.068 104.438 133.359 104.031C133.651 103.615 133.823 103.177 133.875 102.719C133.906 102.333 133.839 101.984 133.672 101.672C133.505 101.349 133.26 101.057 132.938 100.797C132.615 100.526 132.234 100.292 131.797 100.094C131.359 99.8854 130.891 99.7031 130.391 99.5469C129.901 99.3802 129.391 99.2396 128.859 99.125C128.339 99 127.833 98.8958 127.344 98.8125C126.75 98.7083 126.125 98.5729 125.469 98.4062C124.812 98.2292 124.167 98 123.531 97.7188C122.896 97.4375 122.297 97.0885 121.734 96.6719C121.172 96.2552 120.682 95.7552 120.266 95.1719C119.859 94.5781 119.547 93.8906 119.328 93.1094C119.12 92.3281 119.052 91.4323 119.125 90.4219C119.188 89.5885 119.359 88.8385 119.641 88.1719C119.932 87.4948 120.302 86.8906 120.75 86.3594C121.208 85.8281 121.729 85.375 122.312 85C122.906 84.6146 123.536 84.2969 124.203 84.0469C124.87 83.7969 125.557 83.6198 126.266 83.5156C126.984 83.401 127.698 83.349 128.406 83.3594C129.385 83.4115 130.37 83.5625 131.359 83.8125C131.776 83.9167 132.214 84.0521 132.672 84.2188C133.141 84.375 133.609 84.5677 134.078 84.7969C134.547 85.0156 135.01 85.2812 135.469 85.5938C135.927 85.8958 136.365 86.2448 136.781 86.6406L135.031 89.4062C134.698 89.0312 134.344 88.7031 133.969 88.4219C133.594 88.1406 133.214 87.8958 132.828 87.6875C132.453 87.4792 132.078 87.3021 131.703 87.1562C131.328 87.0104 130.974 86.8906 130.641 86.7969C129.839 86.5781 129.052 86.4531 128.281 86.4219C127.333 86.4219 126.49 86.5677 125.75 86.8594C125.01 87.1406 124.385 87.5104 123.875 87.9688C123.375 88.4167 122.99 88.9219 122.719 89.4844C122.458 90.0365 122.328 90.5833 122.328 91.125C122.328 91.6562 122.484 92.1719 122.797 92.6719C123.12 93.1719 123.562 93.625 124.125 94.0312C124.688 94.4375 125.349 94.7865 126.109 95.0781C126.87 95.3594 127.688 95.5573 128.562 95.6719C129.323 95.7552 130.078 95.8906 130.828 96.0781C131.589 96.2656 132.312 96.5052 133 96.7969C133.688 97.0885 134.318 97.4427 134.891 97.8594C135.474 98.2656 135.964 98.7396 136.359 99.2812C136.755 99.8125 137.042 100.417 137.219 101.094C137.406 101.76 137.443 102.5 137.328 103.312ZM163.422 95.9531C163.422 97.0677 163.281 98.1406 163 99.1719C162.719 100.193 162.318 101.151 161.797 102.047C161.286 102.943 160.672 103.76 159.953 104.5C159.234 105.24 158.432 105.875 157.547 106.406C156.672 106.927 155.729 107.333 154.719 107.625C153.719 107.917 152.677 108.062 151.594 108.062C150.5 108.062 149.448 107.917 148.438 107.625C147.438 107.333 146.5 106.927 145.625 106.406C144.75 105.875 143.953 105.24 143.234 104.5C142.516 103.76 141.901 102.943 141.391 102.047C140.88 101.151 140.484 100.193 140.203 99.1719C139.922 98.1406 139.781 97.0677 139.781 95.9531C139.781 94.8385 139.922 93.7656 140.203 92.7344C140.484 91.7031 140.88 90.7396 141.391 89.8438C141.901 88.9479 142.516 88.1354 143.234 87.4062C143.953 86.6667 144.75 86.0365 145.625 85.5156C146.5 84.9844 147.443 84.5781 148.453 84.2969C149.464 84.0052 150.51 83.8594 151.594 83.8594C152.677 83.8594 153.719 84.0052 154.719 84.2969C155.729 84.5781 156.672 84.9844 157.547 85.5156C158.432 86.0365 159.234 86.6667 159.953 87.4062C160.672 88.1354 161.286 88.9479 161.797 89.8438C162.318 90.7396 162.719 91.7031 163 92.7344C163.281 93.7656 163.422 94.8385 163.422 95.9531ZM160.328 95.9531C160.328 95.1302 160.224 94.3385 160.016 93.5781C159.807 92.8073 159.51 92.0885 159.125 91.4219C158.75 90.7552 158.297 90.151 157.766 89.6094C157.234 89.0573 156.646 88.5885 156 88.2031C155.354 87.8073 154.656 87.5052 153.906 87.2969C153.167 87.0781 152.396 86.9688 151.594 86.9688C150.385 86.9688 149.255 87.2083 148.203 87.6875C147.151 88.1562 146.229 88.7969 145.438 89.6094C144.646 90.4219 144.021 91.375 143.562 92.4688C143.115 93.5521 142.891 94.7135 142.891 95.9531C142.891 97.1927 143.115 98.3594 143.562 99.4531C144.021 100.547 144.646 101.5 145.438 102.312C146.229 103.125 147.151 103.771 148.203 104.25C149.255 104.719 150.385 104.953 151.594 104.953C152.396 104.953 153.167 104.849 153.906 104.641C154.656 104.422 155.354 104.12 156 103.734C156.646 103.339 157.234 102.87 157.766 102.328C158.297 101.776 158.75 101.167 159.125 100.5C159.51 99.8333 159.807 99.1198 160.016 98.3594C160.224 97.5885 160.328 96.7865 160.328 95.9531ZM184.812 101.812L184.562 84.7344L188.047 84.9844L188.234 106.453L184.875 106.719L170.891 90.0156L171.094 106.875L167.828 107L167.531 84.6562L170.828 84.5L184.812 101.812ZM210.547 103.312C210.443 104.042 210.234 104.693 209.922 105.266C209.62 105.828 209.24 106.318 208.781 106.734C208.323 107.151 207.807 107.5 207.234 107.781C206.672 108.073 206.078 108.307 205.453 108.484C204.839 108.661 204.214 108.786 203.578 108.859C202.943 108.943 202.333 108.984 201.75 108.984C200.948 108.984 200.156 108.896 199.375 108.719C198.594 108.552 197.823 108.312 197.062 108C196.312 107.698 195.568 107.333 194.828 106.906C194.099 106.479 193.375 106.01 192.656 105.5L194.938 102.812C195.75 103.531 196.552 104.099 197.344 104.516C198.146 104.922 198.865 105.229 199.5 105.438C200.24 105.688 200.948 105.854 201.625 105.938C202.375 105.979 203.073 105.922 203.719 105.766C204.365 105.609 204.927 105.385 205.406 105.094C205.896 104.792 206.286 104.438 206.578 104.031C206.87 103.615 207.042 103.177 207.094 102.719C207.125 102.333 207.057 101.984 206.891 101.672C206.724 101.349 206.479 101.057 206.156 100.797C205.833 100.526 205.453 100.292 205.016 100.094C204.578 99.8854 204.109 99.7031 203.609 99.5469C203.12 99.3802 202.609 99.2396 202.078 99.125C201.557 99 201.052 98.8958 200.562 98.8125C199.969 98.7083 199.344 98.5729 198.688 98.4062C198.031 98.2292 197.385 98 196.75 97.7188C196.115 97.4375 195.516 97.0885 194.953 96.6719C194.391 96.2552 193.901 95.7552 193.484 95.1719C193.078 94.5781 192.766 93.8906 192.547 93.1094C192.339 92.3281 192.271 91.4323 192.344 90.4219C192.406 89.5885 192.578 88.8385 192.859 88.1719C193.151 87.4948 193.521 86.8906 193.969 86.3594C194.427 85.8281 194.948 85.375 195.531 85C196.125 84.6146 196.755 84.2969 197.422 84.0469C198.089 83.7969 198.776 83.6198 199.484 83.5156C200.203 83.401 200.917 83.349 201.625 83.3594C202.604 83.4115 203.589 83.5625 204.578 83.8125C204.995 83.9167 205.432 84.0521 205.891 84.2188C206.359 84.375 206.828 84.5677 207.297 84.7969C207.766 85.0156 208.229 85.2812 208.688 85.5938C209.146 85.8958 209.583 86.2448 210 86.6406L208.25 89.4062C207.917 89.0312 207.562 88.7031 207.188 88.4219C206.812 88.1406 206.432 87.8958 206.047 87.6875C205.672 87.4792 205.297 87.3021 204.922 87.1562C204.547 87.0104 204.193 86.8906 203.859 86.7969C203.057 86.5781 202.271 86.4531 201.5 86.4219C200.552 86.4219 199.708 86.5677 198.969 86.8594C198.229 87.1406 197.604 87.5104 197.094 87.9688C196.594 88.4167 196.208 88.9219 195.938 89.4844C195.677 90.0365 195.547 90.5833 195.547 91.125C195.547 91.6562 195.703 92.1719 196.016 92.6719C196.339 93.1719 196.781 93.625 197.344 94.0312C197.906 94.4375 198.568 94.7865 199.328 95.0781C200.089 95.3594 200.906 95.5573 201.781 95.6719C202.542 95.7552 203.297 95.8906 204.047 96.0781C204.807 96.2656 205.531 96.5052 206.219 96.7969C206.906 97.0885 207.536 97.4427 208.109 97.8594C208.693 98.2656 209.182 98.7396 209.578 99.2812C209.974 99.8125 210.26 100.417 210.438 101.094C210.625 101.76 210.661 102.5 210.547 103.312Z" fill="#1F0B37"/>
<path d="M108.145 35V20.4545H111.22V26.456H117.463V20.4545H120.531V35H117.463V28.9915H111.22V35H108.145ZM128.781 35.2131C127.659 35.2131 126.693 34.9858 125.884 34.5312C125.079 34.072 124.458 33.4233 124.023 32.5852C123.587 31.7424 123.369 30.7457 123.369 29.5952C123.369 28.473 123.587 27.4882 124.023 26.6406C124.458 25.7931 125.072 25.1326 125.862 24.6591C126.658 24.1856 127.591 23.9489 128.661 23.9489C129.38 23.9489 130.05 24.0649 130.671 24.2969C131.296 24.5241 131.84 24.8674 132.304 25.3267C132.773 25.786 133.137 26.3636 133.398 27.0597C133.658 27.7509 133.788 28.5606 133.788 29.4886V30.3196H124.577V28.4446H130.94C130.94 28.009 130.846 27.6231 130.656 27.2869C130.467 26.9508 130.204 26.688 129.868 26.4986C129.537 26.3045 129.151 26.2074 128.71 26.2074C128.251 26.2074 127.844 26.3139 127.489 26.527C127.138 26.7353 126.864 27.017 126.665 27.3722C126.466 27.7225 126.364 28.1132 126.359 28.544V30.3267C126.359 30.8665 126.459 31.3329 126.658 31.7259C126.861 32.1188 127.148 32.4219 127.517 32.6349C127.886 32.848 128.324 32.9545 128.831 32.9545C129.167 32.9545 129.475 32.9072 129.754 32.8125C130.034 32.7178 130.273 32.5758 130.472 32.3864C130.671 32.197 130.822 31.965 130.926 31.6903L133.725 31.875C133.582 32.5473 133.291 33.1345 132.851 33.6364C132.415 34.1335 131.852 34.5218 131.161 34.8011C130.474 35.0758 129.681 35.2131 128.781 35.2131ZM139.588 20.4545V35H136.563V20.4545H139.588ZM145.838 20.4545V35H142.812V20.4545H145.838ZM153.99 35.2131C152.887 35.2131 151.933 34.9787 151.128 34.5099C150.328 34.0365 149.71 33.3783 149.274 32.5355C148.839 31.688 148.621 30.7055 148.621 29.5881C148.621 28.4612 148.839 27.4763 149.274 26.6335C149.71 25.786 150.328 25.1278 151.128 24.6591C151.933 24.1856 152.887 23.9489 153.99 23.9489C155.093 23.9489 156.045 24.1856 156.845 24.6591C157.65 25.1278 158.271 25.786 158.706 26.6335C159.142 27.4763 159.36 28.4612 159.36 29.5881C159.36 30.7055 159.142 31.688 158.706 32.5355C158.271 33.3783 157.65 34.0365 156.845 34.5099C156.045 34.9787 155.093 35.2131 153.99 35.2131ZM154.004 32.8693C154.506 32.8693 154.925 32.7273 155.262 32.4432C155.598 32.1544 155.851 31.7614 156.022 31.2642C156.197 30.767 156.284 30.2012 156.284 29.5668C156.284 28.9323 156.197 28.3665 156.022 27.8693C155.851 27.3722 155.598 26.9792 155.262 26.6903C154.925 26.4015 154.506 26.2571 154.004 26.2571C153.498 26.2571 153.072 26.4015 152.726 26.6903C152.385 26.9792 152.127 27.3722 151.952 27.8693C151.781 28.3665 151.696 28.9323 151.696 29.5668C151.696 30.2012 151.781 30.767 151.952 31.2642C152.127 31.7614 152.385 32.1544 152.726 32.4432C153.072 32.7273 153.498 32.8693 154.004 32.8693Z" fill="#1F0B37"/>
<path d="M106.306 50L104.329 43.4545H105.13L106.681 48.8537H106.737L108.283 43.4545H109.089L110.623 48.8409H110.683L112.234 43.4545H113.035L111.058 50H110.273L108.722 44.6349H108.641L107.09 50H106.306ZM116.933 50.1364C116.322 50.1364 115.794 49.9943 115.348 49.7102C114.902 49.4233 114.556 49.027 114.312 48.5213C114.071 48.0128 113.95 47.4276 113.95 46.7656C113.95 46.1065 114.071 45.5213 114.312 45.0099C114.556 44.4957 114.893 44.0937 115.322 43.804C115.754 43.5114 116.252 43.3651 116.818 43.3651C117.173 43.3651 117.515 43.4304 117.845 43.5611C118.174 43.6889 118.47 43.8864 118.731 44.1534C118.995 44.4176 119.204 44.7514 119.358 45.1548C119.511 45.5554 119.588 46.0298 119.588 46.5781V46.9531H114.474V46.2841H118.812C118.812 45.8636 118.727 45.4858 118.556 45.1506C118.389 44.8125 118.154 44.5455 117.853 44.3494C117.555 44.1534 117.21 44.0554 116.818 44.0554C116.403 44.0554 116.038 44.1662 115.723 44.3878C115.407 44.6094 115.16 44.902 114.981 45.2656C114.805 45.6293 114.716 46.027 114.713 46.4588V46.8594C114.713 47.3793 114.802 47.8338 114.981 48.223C115.163 48.6094 115.42 48.9091 115.752 49.1222C116.085 49.3352 116.478 49.4418 116.933 49.4418C117.243 49.4418 117.514 49.3935 117.747 49.2969C117.983 49.2003 118.18 49.071 118.339 48.9091C118.501 48.7443 118.623 48.5639 118.706 48.3679L119.426 48.6023C119.326 48.8778 119.163 49.1321 118.936 49.3651C118.711 49.598 118.43 49.7855 118.092 49.9276C117.757 50.0668 117.37 50.1364 116.933 50.1364ZM126.462 50.1491C126.067 50.1491 125.707 50.0724 125.38 49.919C125.053 49.7628 124.793 49.5384 124.6 49.2457C124.407 48.9503 124.31 48.5923 124.31 48.1719C124.31 47.848 124.371 47.5753 124.494 47.3537C124.616 47.1321 124.789 46.9503 125.013 46.8082C125.238 46.6662 125.504 46.554 125.81 46.4716C126.117 46.3892 126.455 46.3253 126.825 46.2798C127.191 46.2344 127.501 46.1946 127.754 46.1605C128.009 46.1264 128.204 46.0724 128.337 45.9986C128.471 45.9247 128.538 45.8054 128.538 45.6406V45.4872C128.538 45.0412 128.404 44.6903 128.137 44.4347C127.873 44.1761 127.492 44.0469 126.995 44.0469C126.523 44.0469 126.138 44.1506 125.84 44.358C125.545 44.5653 125.337 44.8097 125.218 45.0909L124.498 44.831C124.646 44.473 124.85 44.1875 125.112 43.9744C125.373 43.7585 125.665 43.6037 125.989 43.5099C126.313 43.4134 126.641 43.3651 126.974 43.3651C127.224 43.3651 127.484 43.3977 127.754 43.4631C128.026 43.5284 128.279 43.642 128.512 43.804C128.745 43.9631 128.934 44.1861 129.079 44.473C129.224 44.7571 129.296 45.1179 129.296 45.5554V50H128.538V48.9645H128.491C128.4 49.1577 128.265 49.3452 128.086 49.527C127.907 49.7088 127.683 49.858 127.413 49.9744C127.143 50.0909 126.826 50.1491 126.462 50.1491ZM126.565 49.4545C126.968 49.4545 127.317 49.3651 127.613 49.1861C127.908 49.0071 128.136 48.7699 128.295 48.4744C128.457 48.1761 128.538 47.848 128.538 47.4901V46.544C128.481 46.598 128.386 46.6463 128.252 46.6889C128.121 46.7315 127.969 46.7699 127.796 46.804C127.626 46.8352 127.455 46.8622 127.285 46.8849C127.114 46.9077 126.961 46.9276 126.825 46.9446C126.455 46.9901 126.14 47.0611 125.879 47.1577C125.617 47.2543 125.417 47.3878 125.278 47.5582C125.138 47.7259 125.069 47.9418 125.069 48.206C125.069 48.6037 125.211 48.9119 125.495 49.1307C125.779 49.3466 126.136 49.4545 126.565 49.4545ZM131.314 50V43.4545H132.051V44.4602H132.107C132.237 44.1307 132.464 43.8651 132.788 43.6634C133.115 43.4588 133.484 43.3565 133.896 43.3565C133.959 43.3565 134.028 43.358 134.105 43.3608C134.182 43.3636 134.246 43.3665 134.297 43.3693V44.1406C134.263 44.1349 134.203 44.1264 134.118 44.1151C134.033 44.1037 133.94 44.098 133.841 44.098C133.5 44.098 133.196 44.1705 132.929 44.3153C132.665 44.4574 132.456 44.6548 132.303 44.9077C132.149 45.1605 132.072 45.4489 132.072 45.7727V50H131.314ZM138.038 50.1364C137.428 50.1364 136.899 49.9943 136.453 49.7102C136.007 49.4233 135.662 49.027 135.418 48.5213C135.176 48.0128 135.055 47.4276 135.055 46.7656C135.055 46.1065 135.176 45.5213 135.418 45.0099C135.662 44.4957 135.999 44.0937 136.428 43.804C136.859 43.5114 137.358 43.3651 137.923 43.3651C138.278 43.3651 138.621 43.4304 138.95 43.5611C139.28 43.6889 139.575 43.8864 139.837 44.1534C140.101 44.4176 140.31 44.7514 140.463 45.1548C140.616 45.5554 140.693 46.0298 140.693 46.5781V46.9531H135.58V46.2841H139.918C139.918 45.8636 139.832 45.4858 139.662 45.1506C139.494 44.8125 139.26 44.5455 138.959 44.3494C138.661 44.1534 138.315 44.0554 137.923 44.0554C137.509 44.0554 137.143 44.1662 136.828 44.3878C136.513 44.6094 136.266 44.902 136.087 45.2656C135.911 45.6293 135.821 46.027 135.818 46.4588V46.8594C135.818 47.3793 135.908 47.8338 136.087 48.223C136.268 48.6094 136.526 48.9091 136.858 49.1222C137.19 49.3352 137.584 49.4418 138.038 49.4418C138.348 49.4418 138.619 49.3935 138.852 49.2969C139.088 49.2003 139.286 49.071 139.445 48.9091C139.607 48.7443 139.729 48.5639 139.811 48.3679L140.531 48.6023C140.432 48.8778 140.268 49.1321 140.041 49.3651C139.817 49.598 139.536 49.7855 139.197 49.9276C138.862 50.0668 138.476 50.1364 138.038 50.1364ZM148.318 43.4545V44.1151H145.194V43.4545H148.318ZM146.17 41.8864H146.933V48.2912C146.933 48.5639 146.98 48.7784 147.074 48.9347C147.167 49.0881 147.289 49.1974 147.44 49.2628C147.591 49.3253 147.751 49.3565 147.922 49.3565C148.021 49.3565 148.106 49.3509 148.177 49.3395C148.248 49.3253 148.311 49.3111 148.365 49.2969L148.527 49.983C148.453 50.0114 148.362 50.0369 148.254 50.0597C148.146 50.0852 148.012 50.098 147.853 50.098C147.575 50.098 147.306 50.0369 147.048 49.9148C146.792 49.7926 146.582 49.6108 146.417 49.3693C146.252 49.1278 146.17 48.8281 146.17 48.4702V41.8864ZM150.94 45.9091V50H150.181V41.2727H150.94V44.4815H151.008C151.161 44.1435 151.398 43.8736 151.719 43.6719C152.043 43.4702 152.452 43.3693 152.947 43.3693C153.39 43.3693 153.779 43.4602 154.114 43.642C154.45 43.8239 154.711 44.0923 154.898 44.4474C155.086 44.8026 155.18 45.2401 155.18 45.7599V50H154.417V45.8068C154.417 45.267 154.266 44.8423 153.965 44.5327C153.667 44.2202 153.263 44.0639 152.755 44.0639C152.406 44.0639 152.094 44.1378 151.822 44.2855C151.549 44.4332 151.333 44.6463 151.174 44.9247C151.018 45.2003 150.94 45.5284 150.94 45.9091ZM159.824 50.1364C159.213 50.1364 158.684 49.9943 158.238 49.7102C157.792 49.4233 157.447 49.027 157.203 48.5213C156.961 48.0128 156.841 47.4276 156.841 46.7656C156.841 46.1065 156.961 45.5213 157.203 45.0099C157.447 44.4957 157.784 44.0937 158.213 43.804C158.645 43.5114 159.143 43.3651 159.708 43.3651C160.064 43.3651 160.406 43.4304 160.735 43.5611C161.065 43.6889 161.36 43.8864 161.622 44.1534C161.886 44.4176 162.095 44.7514 162.248 45.1548C162.402 45.5554 162.478 46.0298 162.478 46.5781V46.9531H157.365V46.2841H161.703C161.703 45.8636 161.618 45.4858 161.447 45.1506C161.279 44.8125 161.045 44.5455 160.744 44.3494C160.446 44.1534 160.1 44.0554 159.708 44.0554C159.294 44.0554 158.929 44.1662 158.613 44.3878C158.298 44.6094 158.051 44.902 157.872 45.2656C157.696 45.6293 157.606 46.027 157.603 46.4588V46.8594C157.603 47.3793 157.693 47.8338 157.872 48.223C158.054 48.6094 158.311 48.9091 158.643 49.1222C158.975 49.3352 159.369 49.4418 159.824 49.4418C160.133 49.4418 160.404 49.3935 160.637 49.2969C160.873 49.2003 161.071 49.071 161.23 48.9091C161.392 48.7443 161.514 48.5639 161.596 48.3679L162.316 48.6023C162.217 48.8778 162.054 49.1321 161.826 49.3651C161.602 49.598 161.321 49.7855 160.983 49.9276C160.647 50.0668 160.261 50.1364 159.824 50.1364Z" fill="#1F0B37"/>
</svg>
